<svg xmlns="http://www.w3.org/2000/svg" viewBox="0 0 1200 760">
<defs><linearGradient id="sky" y1="0" y2="1"><stop stop-color="#BFE9D2"/><stop offset="1" stop-color="#F2F7EC"/></linearGradient><linearGradient id="panel" x1="0" x2="1"><stop stop-color="#17342D"/><stop offset="1" stop-color="#315E50"/></linearGradient></defs>
<rect width="1200" height="760" fill="url(#sky)"/><circle cx="970" cy="135" r="70" fill="#F1D86A"/><path d="M0 570C170 480 350 510 500 550s300 20 430-30 200-30 270 0v240H0z" fill="#8DCB92"/><path d="M80 620L290 355h700l130 265z" fill="#DCD9CB"/><g fill="url(#panel)" stroke="#87C7B0" stroke-width="5"><path d="M300 385h220l-20 95H270z"/><path d="M530 385h220l10 95H510z"/><path d="M760 385h190l40 95H770z"/><path d="M255 495h240l-22 105H215z"/><path d="M507 495h255l12 105H485z"/><path d="M775 495h230l48 105H788z"/></g><g stroke="#87C7B0" stroke-width="3" opacity=".75"><path d="M400 385l-15 95M635 385l6 95M855 385l25 95M365 495l-19 105M633 495l7 105M890 495l32 105"/></g>
</svg>
